<svg xmlns="http://www.w3.org/2000/svg" viewBox="0 0 154.86 53.6"><defs><style>.cls-1{fill:#2f85c6;}.cls-2{fill:#3656a6;}</style></defs><title>Asset 11</title><g id="Layer_2" data-name="Layer 2"><g id="Layer_1-2" data-name="Layer 1"><path class="cls-1" d="M50,28.56c-.14-.91-.19-1.84-.38-2.73a1.38,1.38,0,0,0-2-1.17,12.13,12.13,0,0,0-1.75.62c-.47.19-.92.44-1.42.68a3.41,3.41,0,0,1,1.14-3.4,17,17,0,0,1,2-1.43,6.56,6.56,0,0,0,3.19-5.38,14.41,14.41,0,0,1,8.57-12.5L60,3a8.85,8.85,0,0,0-4.62-1.33,5.19,5.19,0,0,1,.49-.23,20.89,20.89,0,0,1,15.07,0,14.61,14.61,0,0,1,9.29,9.78c.2.69.34,1.3,1.13,1.61.58.23.56.64.16,1.12a1.51,1.51,0,0,0-.26.61c-.12.65-.38.84-1,.76a3,3,0,0,0-.94,0,15.05,15.05,0,0,1-8.66-.51,3,3,0,0,1-2.07-2.69,7.3,7.3,0,0,1,.06-2c.15-.93.42-1.84.67-2.91-1.82,2.4-1.86,4.9-1,7.57l-.7,0c-1.11-.06-2.22-.14-3.33-.17a2.24,2.24,0,0,0-2.43,1.56,6.75,6.75,0,0,1-3.22,3.22,8.11,8.11,0,0,0,.4-.84,16.65,16.65,0,0,0,.81-2.41c.15-.81-.36-1.22-1.12-.94a7.81,7.81,0,0,0-2.08,1.1c-2,1.56-3.52,3.45-3.54,6.23a25.24,25.24,0,0,1-.47,4.14,5.7,5.7,0,0,1-2.2,3.75C50.23,29.68,50.1,29.12,50,28.56ZM70,8.73c-1.17,3-.06,5.25,2.33,5.66C70.12,13,69.84,11,70,8.73Zm3.45.4a.75.75,0,0,0,.77-.78.79.79,0,1,0-1.57,0A.77.77,0,0,0,73.42,9.13Z"/><path class="cls-2" d="M15.29,43.17H5.06L3.72,46.39a1.91,1.91,0,0,1-.73.87,1.88,1.88,0,0,1-1,.29,2.47,2.47,0,0,1-.85-.17,1.87,1.87,0,0,1-.64-.44,1.8,1.8,0,0,1-.37-.62A2,2,0,0,1,0,45.59a2.28,2.28,0,0,1,.18-.77l8.18-19a1.88,1.88,0,0,1,1.78-1.18,1.79,1.79,0,0,1,1,.31,2,2,0,0,1,.72.86l8.22,19a2.06,2.06,0,0,1,.1,1.48,1.7,1.7,0,0,1-1,1.08,2.05,2.05,0,0,1-.83.17,1.94,1.94,0,0,1-1.05-.3,1.87,1.87,0,0,1-.73-.86ZM6.61,39.29h7.07l-3.51-8.42Z"/><path class="cls-2" d="M20.28,39.24A8.22,8.22,0,0,1,21,35.92a8.66,8.66,0,0,1,4.55-4.54,8.15,8.15,0,0,1,3.3-.67,8.29,8.29,0,0,1,3.33.67,8.76,8.76,0,0,1,2.71,1.83,8.64,8.64,0,0,1,1.81,2.71,8.37,8.37,0,0,1,.66,3.32V51.58A2,2,0,0,1,36.73,53a2.09,2.09,0,0,1-.62.43,1.83,1.83,0,0,1-.77.16A1.8,1.8,0,0,1,34,53a2.12,2.12,0,0,1-.52-1.44V46.39a8.68,8.68,0,0,1-2.18,1,8.48,8.48,0,0,1-5.75-.31A8.63,8.63,0,0,1,21,42.55,8.24,8.24,0,0,1,20.28,39.24Zm3.88,0A4.35,4.35,0,0,0,24.53,41a4.67,4.67,0,0,0,1,1.47,4.45,4.45,0,0,0,1.48,1,4.36,4.36,0,0,0,1.8.37,4.45,4.45,0,0,0,1.82-.37,4.51,4.51,0,0,0,1.47-1,4.53,4.53,0,0,0,1.34-3.26,4.8,4.8,0,0,0-.35-1.82A4.63,4.63,0,0,0,30.63,35,4.61,4.61,0,0,0,27,35a4.66,4.66,0,0,0-2.48,2.46A4.45,4.45,0,0,0,24.16,39.24Z"/><path class="cls-2" d="M43.71,39.52A4.35,4.35,0,0,0,45,42.62a4.26,4.26,0,0,0,1.37.93,4.42,4.42,0,0,0,1.71.34,3.82,3.82,0,0,0,1.66-.35A3.68,3.68,0,0,0,51,42.59a4.25,4.25,0,0,0,.78-1.4A5.13,5.13,0,0,0,52,39.47V32.85a1.79,1.79,0,0,1,.16-.76,2,2,0,0,1,.44-.6,2.24,2.24,0,0,1,.63-.42,1.94,1.94,0,0,1,.76-.15,1.86,1.86,0,0,1,.75.15,2.24,2.24,0,0,1,.6.42,1.91,1.91,0,0,1,.4.6,2.14,2.14,0,0,1,.14.76v6.57a8.9,8.9,0,0,1-.58,3.23,8.33,8.33,0,0,1-1.62,2.66A7.51,7.51,0,0,1,48,47.77a8,8,0,0,1-3.21-.65,8.28,8.28,0,0,1-4.35-4.41,8,8,0,0,1-.65-3.2V32.85a1.94,1.94,0,0,1,.15-.76,2,2,0,0,1,.42-.6,1.9,1.9,0,0,1,.61-.42,1.93,1.93,0,0,1,.75-.15,1.86,1.86,0,0,1,.75.15,2.1,2.1,0,0,1,.63.42,1.81,1.81,0,0,1,.42.6,1.94,1.94,0,0,1,.15.76Z"/><path class="cls-2" d="M57.65,39.24a8.22,8.22,0,0,1,.68-3.32,8.66,8.66,0,0,1,4.55-4.54,8.15,8.15,0,0,1,3.3-.67,8.29,8.29,0,0,1,3.33.67A8.47,8.47,0,0,1,74,35.92a8.37,8.37,0,0,1,.66,3.32v6.33a2,2,0,0,1-.15.77,1.79,1.79,0,0,1-.42.62,1.9,1.9,0,0,1-.64.43,1.83,1.83,0,0,1-.77.16,1.72,1.72,0,0,1-1.18-.41,2,2,0,0,1-.65-1,8.8,8.8,0,0,1-2.21,1.21,7,7,0,0,1-2.49.45,8.15,8.15,0,0,1-3.3-.67,8.63,8.63,0,0,1-4.55-4.55A8.24,8.24,0,0,1,57.65,39.24Zm3.88,0A4.43,4.43,0,0,0,61.9,41a4.55,4.55,0,0,0,1,1.48,4.67,4.67,0,0,0,1.47,1,4.61,4.61,0,0,0,3.62,0,4.61,4.61,0,0,0,1.48-1,4.66,4.66,0,0,0,1-1.48A4.61,4.61,0,0,0,68,35a4.59,4.59,0,0,0-3.61,0,4.69,4.69,0,0,0-1.48,1,4.51,4.51,0,0,0-1,1.47A4.45,4.45,0,0,0,61.53,39.24Z"/><path class="cls-1" d="M88.32,45.66a1.9,1.9,0,0,1-2.64,1.74A2.23,2.23,0,0,1,85,47a2,2,0,0,1-.44-.6,1.86,1.86,0,0,1-.16-.74V37.24A6.17,6.17,0,0,1,85,34.71a6.46,6.46,0,0,1,1.44-2.08,6.81,6.81,0,0,1,2.12-1.4,6.29,6.29,0,0,1,2.55-.52,6.6,6.6,0,0,1,2.62.53,7.09,7.09,0,0,1,2.15,1.47A7.05,7.05,0,0,1,98,31.24a6.73,6.73,0,0,1,2.64-.53,6.54,6.54,0,0,1,4.62,1.88,7,7,0,0,1,1.43,2,6.78,6.78,0,0,1,.59,2.49.25.25,0,0,0,0,.08v8.47a1.85,1.85,0,0,1-.15.74,1.94,1.94,0,0,1-.41.6,1.91,1.91,0,0,1-.6.4,1.77,1.77,0,0,1-.73.15,2,2,0,0,1-1.83-1.15,1.86,1.86,0,0,1-.16-.74V37.22a2.5,2.5,0,0,0-.25-1.06,2.67,2.67,0,0,0-.61-.83,2.94,2.94,0,0,0-.88-.54,2.67,2.67,0,0,0-1.06-.2,2.82,2.82,0,0,0-1.09.21,3.15,3.15,0,0,0-.91.58,3.06,3.06,0,0,0-.61.86,2.56,2.56,0,0,0-.22,1.07v8.35a1.85,1.85,0,0,1-1.89,1.89,1.94,1.94,0,0,1-.76-.15,2.18,2.18,0,0,1-.63-.4,1.86,1.86,0,0,1-.44-.6,1.7,1.7,0,0,1-.16-.74V37.24a2.7,2.7,0,0,0-.24-1.07,2.57,2.57,0,0,0-.6-.84,2.92,2.92,0,0,0-2-.74,3,3,0,0,0-1.08.2,2.84,2.84,0,0,0-.9.58,2.57,2.57,0,0,0-.6.85,2.39,2.39,0,0,0-.23,1Z"/><path class="cls-1" d="M113.33,41a4.16,4.16,0,0,0,.65,1.21,4.55,4.55,0,0,0,1,.93,4.25,4.25,0,0,0,1.21.59,4.61,4.61,0,0,0,1.4.21,4.14,4.14,0,0,0,2.89-1,2.8,2.8,0,0,1,.7-.37,2.21,2.21,0,0,1,.64-.11,1.54,1.54,0,0,1,.9.26,2.22,2.22,0,0,1,.9,1.28,1.7,1.7,0,0,1,0,.67,1.94,1.94,0,0,1-.22.68,1.66,1.66,0,0,1-.51.59,7.21,7.21,0,0,1-.89.69,5.62,5.62,0,0,1-1.15.58,8.24,8.24,0,0,1-1.47.41,10.11,10.11,0,0,1-1.83.15,8.29,8.29,0,0,1-3.33-.67,8.8,8.8,0,0,1-2.72-1.83,8.9,8.9,0,0,1-1.84-2.71,8.47,8.47,0,0,1,0-6.65,8.67,8.67,0,0,1,1.84-2.71,8.77,8.77,0,0,1,2.72-1.82,8.29,8.29,0,0,1,3.33-.67,8.38,8.38,0,0,1,3.3.66,8.79,8.79,0,0,1,2.71,1.8,8.38,8.38,0,0,1,1.86,2.67,8.13,8.13,0,0,1,.71,3.29,1.77,1.77,0,0,1-.53,1.33,1.9,1.9,0,0,1-1.38.51Zm8.83-3.22a4.08,4.08,0,0,0-.61-1.32,4.17,4.17,0,0,0-1-1,4.94,4.94,0,0,0-1.33-.63,5.63,5.63,0,0,0-1.55-.21,5.19,5.19,0,0,0-1.55.22,4.59,4.59,0,0,0-1.31.65,4.47,4.47,0,0,0-1,1,4.25,4.25,0,0,0-.61,1.29Z"/><path class="cls-1" d="M127,39.24a8.22,8.22,0,0,1,.68-3.32,8.66,8.66,0,0,1,4.55-4.54,8.15,8.15,0,0,1,3.3-.67,8.29,8.29,0,0,1,3.33.67,8.47,8.47,0,0,1,4.52,4.54,8.37,8.37,0,0,1,.66,3.32v6.33a2,2,0,0,1-.15.77,1.79,1.79,0,0,1-.42.62,2,2,0,0,1-.63.43,1.91,1.91,0,0,1-.78.16,1.72,1.72,0,0,1-1.18-.41,1.93,1.93,0,0,1-.64-1,9,9,0,0,1-2.21,1.21,7,7,0,0,1-2.5.45,8.15,8.15,0,0,1-3.3-.67,8.63,8.63,0,0,1-4.55-4.55A8.24,8.24,0,0,1,127,39.24Zm3.88,0a4.43,4.43,0,0,0,.37,1.8,4.7,4.7,0,0,0,2.48,2.48,4.36,4.36,0,0,0,1.8.37,4.45,4.45,0,0,0,1.82-.37,4.56,4.56,0,0,0,1.47-1,4.69,4.69,0,0,0,1-1.48,4.86,4.86,0,0,0,0-3.62,4.64,4.64,0,0,0-1-1.47,4.54,4.54,0,0,0-1.47-1,4.61,4.61,0,0,0-3.62,0,4.66,4.66,0,0,0-2.48,2.46A4.45,4.45,0,0,0,130.91,39.24Z"/><path class="cls-1" d="M153,43.67a2,2,0,0,1,.77.16,2,2,0,0,1,.61.44,2.44,2.44,0,0,1,.39.64,1.92,1.92,0,0,1,.14.75A1.82,1.82,0,0,1,153,47.55a6.15,6.15,0,0,1-2.28-.41A5.84,5.84,0,0,1,148.8,46a5.27,5.27,0,0,1-1.27-1.77,5.9,5.9,0,0,1-.5-2.29V26.45a2,2,0,0,1,.15-.77,2,2,0,0,1,.4-.61,2,2,0,0,1,.59-.42,1.85,1.85,0,0,1,.74-.15,2,2,0,0,1,.77.15,2.1,2.1,0,0,1,.63.42,1.8,1.8,0,0,1,.44.61,1.83,1.83,0,0,1,.16.77V41.81a1.7,1.7,0,0,0,.57,1.4A2.25,2.25,0,0,0,153,43.67Z"/></g></g></svg>