<svg height="132" viewBox="0 0 167 132" width="167" xmlns="http://www.w3.org/2000/svg"><path d="m26.5 123.6c-.5-3.9-.7-7.9-1.6-11.8-1-4.6-3.7-6.2-8.4-5-2.5.7-5 1.7-7.5 2.7-2 .8-3.9 1.8-6.1 2.9-1-6 .5-10.9 4.9-14.6 2.7-2.3 5.6-4.3 8.5-6.2 8.5-5.4 12.8-12.7 13.7-23.1 1.9-24.7 14.4-42.8 36.8-53.7.8-.4 1.5-.8 2.6-1.3-6-4.4-12.6-4.9-19.8-5.7 1.1-.6 1.6-.9 2-1 21.7-7.7 43.3-8.3 64.8.1 19.8 7.7 33.8 21.2 39.9 42 .9 3 1.5 5.6 4.9 7 2.5 1 2.4 2.7.7 4.8-.6.7-.9 1.7-1.1 2.6-.5 2.8-1.6 3.6-4.4 3.3-1.3-.2-2.7-.2-4 0-12.6 2.6-25.1 2.5-37.2-2.2-5.4-2-8.3-6-9-11.5-.3-2.8-.2-5.8.3-8.6.6-3.9 1.8-7.9 2.9-12.5-7.8 10.4-8 21.1-4.5 32.6-1.2-.1-2.1-.2-3-.2-4.8-.3-9.5-.6-14.3-.7-5-.2-8.5 1.6-10.5 6.7-2.4 6.3-7.5 10.1-13.8 13.8.8-1.6 1.4-2.6 1.7-3.6 1.3-3.4 2.8-6.8 3.5-10.4.7-3.4-1.5-5.2-4.8-4-3.2 1.2-6.3 2.7-9 4.7-8.8 6.8-15.1 14.9-15.2 26.8 0 5.9-1 11.9-2 17.8-1.1 6.2-3.7 11.7-9.5 16.1-.5-3-1.1-5.4-1.5-7.8zm85.8-85.3c-5 12.8-.2 22.6 10 24.3-9.3-5.7-10.5-14.4-10-24.3zm14.8 1.8c2.1-.2 3.2-1.4 3.3-3.4.2-1.9-1.5-3.5-3.4-3.4-1.8 0-3.3 1.5-3.3 3.3 0 1.9 1.5 3.6 3.4 3.5z" fill="#2f85c6" fill-rule="evenodd"/><path d="m-122.8 186.4h-43.9l-5.8 13.8q-1.1 2.5-3.1 3.7-2 1.3-4.5 1.3-1.7 0-3.6-.8-1.7-.6-2.8-1.8-1.1-1.2-1.6-2.7-.5-1.5-.3-3.1.1-1.7.8-3.3l35.1-81.6q1.1-2.5 3.1-3.8 2-1.3 4.6-1.3 2.4 0 4.4 1.3 2 1.3 3.1 3.7l35.4 81.7q1.4 3.2.4 6.3-1 3.2-4.2 4.6-1.6.8-3.5.8-2.5 0-4.6-1.3-2-1.3-3.1-3.7zm-37.3-16.7h30.4l-15.1-36.2z" fill="#2955a5" fill-rule="evenodd"/><path d="m-101.3 169.5q0-7.6 2.9-14.3 3-6.6 8-11.6 5-5 11.6-7.9 6.7-2.9 14.2-2.9 7.6 0 14.3 2.9 6.7 2.9 11.6 7.9 5 5 7.8 11.6 2.9 6.7 2.9 14.3v53q0 1.9-.7 3.4-.7 1.6-1.9 2.8-1.1 1.1-2.6 1.8-1.6.7-3.4.7-3.6 0-5.9-2.5-2.2-2.5-2.2-6.2v-22.3q-4.4 2.9-9.4 4.4-5 1.5-10.5 1.5-7.5 0-14.2-2.8-6.6-2.9-11.6-7.9-5-5-8-11.7-2.9-6.7-2.9-14.2zm16.7 0q0 4 1.6 7.7 1.6 3.6 4.3 6.3 2.7 2.7 6.3 4.3 3.6 1.6 7.8 1.6 4.1 0 7.8-1.6 3.6-1.6 6.3-4.3 2.7-2.7 4.3-6.3 1.5-3.7 1.5-7.7 0-4.2-1.5-7.8-1.6-3.7-4.3-6.4-2.7-2.7-6.3-4.2-3.7-1.6-7.8-1.6-4.1 0-7.7 1.6-3.7 1.5-6.4 4.2-2.7 2.7-4.3 6.4-1.6 3.6-1.6 7.8z" fill="#2955a5" fill-rule="evenodd"/><path d="m-.6 170.7q0 3.9 1.5 7.3 1.4 3.5 3.9 6 2.5 2.5 5.9 4 3.4 1.5 7.3 1.5 4 0 7.2-1.5 3.1-1.5 5.3-4.1 2.2-2.6 3.4-6.1 1.2-3.4 1.2-7.3v-28.5q0-1.7.7-3.2.7-1.5 1.9-2.7 1.2-1.1 2.7-1.7 1.5-.7 3.2-.7 1.8 0 3.3.7 1.4.6 2.5 1.7 1.2 1.2 1.8 2.7.6 1.5.6 3.2v28.2q0 7.4-2.5 14-2.5 6.5-7 11.4-4.4 4.8-10.7 7.7-6.2 2.8-13.6 2.8-7.3 0-13.8-2.8-6.4-2.8-11.1-7.6-4.8-4.9-7.6-11.3-2.7-6.5-2.7-13.8v-28.6q0-1.7.6-3.2.7-1.5 1.8-2.7 1.1-1.1 2.6-1.7 1.6-.7 3.3-.7 1.7 0 3.2.7 1.5.6 2.7 1.7 1.1 1.2 1.8 2.7.6 1.5.6 3.2z" fill="#2955a5"/><path d="m59.3 169.5q0-7.6 3-14.3 2.9-6.6 7.9-11.6 5-5 11.6-7.9 6.7-2.9 14.2-2.9 7.6 0 14.3 2.9 6.7 2.9 11.7 7.9 4.9 5 7.8 11.6 2.8 6.7 2.8 14.3v27.2q0 1.7-.7 3.3-.6 1.5-1.8 2.7-1.1 1.1-2.7 1.8-1.6.7-3.3.7-3 0-5.1-1.8-2.1-1.7-2.8-4.4-4.4 3.3-9.5 5.2-5.1 1.9-10.7 1.9-7.5 0-14.2-2.8-6.6-2.9-11.6-7.9-5-5-7.9-11.7-3-6.7-3-14.2zm16.7 0q0 4 1.6 7.7 1.6 3.6 4.3 6.4 2.7 2.7 6.3 4.3 3.7 1.6 7.8 1.6 4.2 0 7.8-1.6 3.7-1.6 6.4-4.3 2.6-2.8 4.2-6.4 1.5-3.7 1.5-7.7 0-4.2-1.5-7.8-1.6-3.7-4.2-6.4-2.7-2.7-6.4-4.2-3.6-1.6-7.8-1.6-4.1 0-7.7 1.6-3.7 1.5-6.4 4.2-2.7 2.7-4.3 6.4-1.6 3.6-1.6 7.8z" fill="#2955a5" fill-rule="evenodd"/><g fill="#2f85c6"><path d="m191.2 197.1q0 3.4-2.4 5.8-2.3 2.3-5.8 2.3-1.6 0-3.2-.6-1.5-.7-2.7-1.8-1.2-1-1.9-2.5-.7-1.5-.7-3.2v-36.2q0-5.8 2.3-10.9 2.2-5.1 6.2-8.9 3.9-3.8 9.1-6.1 5.2-2.2 10.9-2.2 6 0 11.3 2.3 5.3 2.3 9.3 6.3 4-4 9.3-6.3 5.3-2.3 11.3-2.3 5.9 0 11 2.2 5 2.1 8.9 5.9 3.8 3.7 6.1 8.7 2.3 5 2.6 10.7 0 .2 0 .4 0 .2 0 .3v36.1q0 1.7-.6 3.2-.7 1.5-1.8 2.5-1.1 1.1-2.6 1.8-1.4.6-3.1.6-1.7 0-3.3-.6-1.6-.7-2.7-1.8-1.2-1-1.9-2.5-.7-1.5-.7-3.2v-36.3q0-2.5-1-4.6-1-2-2.7-3.5-1.6-1.5-3.7-2.4-2.2-.8-4.6-.8-2.5 0-4.7.9-2.2.9-3.9 2.5-1.6 1.6-2.6 3.7-1 2.1-1 4.6v35.9q0 3.4-2.3 5.8-2.4 2.3-5.8 2.3-1.7 0-3.2-.6-1.6-.7-2.8-1.8-1.2-1-1.9-2.5-.6-1.5-.6-3.2v-36.2q-.1-2.5-1.1-4.6-.9-2.1-2.6-3.6-1.6-1.5-3.7-2.4-2.2-.8-4.6-.8-2.5 0-4.7.9-2.2.9-3.8 2.4-1.7 1.6-2.6 3.7-1 2.1-1 4.4z"/><path d="m298.7 176.9q1 2.9 2.8 5.2 1.8 2.4 4.2 4 2.4 1.7 5.2 2.5 2.8.9 6 .9 7.9 0 12.4-4.1 1.6-1.1 3-1.6 1.5-.5 2.8-.5 2.2 0 3.9 1.1 1.6 1.1 2.7 2.9.8 1.2 1.1 2.7.4 1.4.2 2.8-.2 1.5-.9 2.9-.8 1.4-2.2 2.6-1.7 1.5-3.9 3-2.1 1.4-4.9 2.5-2.8 1-6.3 1.7-3.5.6-7.9.6-7.6 0-14.3-2.8-6.7-2.9-11.7-7.9-5-5-7.9-11.7-2.9-6.6-2.9-14.2 0-7.6 2.9-14.3 2.9-6.7 7.9-11.7 5-4.9 11.7-7.8 6.7-2.9 14.3-2.9 7.5 0 14.2 2.8 6.6 2.9 11.7 7.8 5 4.9 8 11.5 2.9 6.6 3 14.1 0 3.5-2.3 5.7-2.2 2.2-5.9 2.2zm37.9-13.8q-.8-3.2-2.6-5.7-1.8-2.5-4.4-4.3-2.5-1.8-5.6-2.7-3.2-.9-6.7-.9-3.6 0-6.7.9-3.1 1-5.6 2.8-2.5 1.8-4.3 4.3-1.7 2.5-2.6 5.6z" fill-rule="evenodd"/><path d="m357.6 169.5q0-7.6 2.9-14.3 2.9-6.6 7.9-11.6 5-5 11.7-7.9 6.6-2.9 14.2-2.9 7.6 0 14.2 2.9 6.7 2.9 11.7 7.9 5 5 7.8 11.6 2.8 6.7 2.8 14.3v27.2q0 1.7-.6 3.3-.7 1.5-1.8 2.7-1.2 1.1-2.7 1.8-1.6.7-3.4.7-3 0-5.1-1.8-2-1.7-2.7-4.4-4.4 3.3-9.5 5.2-5.1 1.9-10.7 1.9-7.6 0-14.2-2.8-6.7-2.9-11.7-7.9-5-5-7.9-11.7-2.9-6.7-2.9-14.2zm16.7 0q0 4 1.5 7.7 1.6 3.6 4.3 6.4 2.8 2.7 6.4 4.3 3.6 1.6 7.8 1.6 4.1 0 7.8-1.6 3.6-1.6 6.3-4.3 2.7-2.8 4.2-6.4 1.6-3.7 1.6-7.7 0-4.2-1.6-7.8-1.5-3.7-4.2-6.4-2.7-2.7-6.3-4.2-3.7-1.6-7.8-1.6-4.1 0-7.8 1.6-3.6 1.5-6.4 4.2-2.7 2.7-4.3 6.4-1.5 3.6-1.5 7.8z" fill-rule="evenodd"/><path d="m469 188.5q1.8 0 3.3.7 1.5.7 2.6 1.9 1.1 1.2 1.7 2.7.6 1.6.6 3.3 0 3.5-2.3 5.8-2.3 2.3-5.9 2.3-5.2 0-9.8-1.8-4.6-1.7-8-4.9-3.5-3.1-5.5-7.6-2-4.4-2.2-9.8v-66.6q0-1.8.7-3.3.7-1.5 1.7-2.7 1.1-1.1 2.6-1.7 1.4-.7 3.1-.7 1.8 0 3.3.7 1.6.6 2.8 1.7 1.1 1.2 1.8 2.7.7 1.5.7 3.3v66q0 4 2.5 6 2.4 2 6.3 2z"/></g></svg>