<!-- icon666.com - MILLIONS vector ICONS FREE --><svg fill="none" viewBox="0 0 22 24" xmlns="http://www.w3.org/2000/svg" xmlns:xlink="http://www.w3.org/1999/xlink"><linearGradient id="paint0_linear_405_3585" gradientUnits="userSpaceOnUse" x1="11" x2="11" y1=".067" y2="23.933"><stop offset="0" stop-color="#f97794"></stop><stop offset="1" stop-color="#9708cc"></stop></linearGradient><path clip-rule="evenodd" d="m7.43562 2.75683c1.02337-3.585928 6.10528-3.585928 7.12868 0 .3268 1.14516 1.5033 1.82442 2.6585 1.53487 3.6172-.9067 6.1582 3.49441 3.5644 6.1736-.8284.8556-.8284 2.2142 0 3.0698 2.5938 2.6792.0528 7.0803-3.5644 6.1736-1.1552-.2895-2.3317.3897-2.6585 1.5349-1.0234 3.5859-6.10531 3.5859-7.12868 0-.32682-1.1452-1.50333-1.8244-2.65848-1.5349-3.61719.9067-6.15817-3.4944-3.56435-6.1736.82833-.8556.82833-2.2142 0-3.0698-2.59381-2.67919-.05284-7.0803 3.56435-6.1736 1.15515.28955 2.33166-.38971 2.65848-1.53487zm8.14058 6.72352c.2651-.31821.2221-.79113-.0961-1.0563-.3182-.26518-.7911-.22218-1.0563.09603l-3.4635 4.15622c-.3708.445-.5985.7154-.7861.8848-.087.0786-.1386.1099-.1633.1218-.0051.0025-.0086.0039-.0109.0048-.00226-.0009-.00584-.0023-.01087-.0048-.02473-.0119-.07633-.0432-.16333-.1218-.18758-.1694-.41528-.4398-.78608-.8848l-1.46355-1.7562c-.26518-.3182-.7381-.3612-1.05631-.0961-.31821.2652-.3612.7381-.09603 1.0564l1.4955 1.7946c.32847.3942.62458.7496.90118.9994.30094.2717.68.5138 1.17949.5138.4995 0 .8786-.2421 1.1795-.5138.2766-.2498.5727-.6052.9012-.9994z" fill="url(#paint0_linear_405_3585)" fill-rule="evenodd"></path></svg>